<?xml version='1.0' encoding='utf-8'?>
<svg xmlns:xlink="http://www.w3.org/1999/xlink" class="pygal-chart" id="chart-a360d3d1-e999-44d2-9031-a5ef74a90168" viewBox="0 0 800 600" xmlns="http://www.w3.org/2000/svg"><!--Generated with pygal 1.7.0 (etree) ©Kozea 2011-2014 on 2015-07-05--><!--http://pygal.org--><!--http://github.com/Kozea/pygal--><defs><style type="text/css">#chart-a360d3d1-e999-44d2-9031-a5ef74a90168 .title{font-family:"monospace";font-size:16px}#chart-a360d3d1-e999-44d2-9031-a5ef74a90168 .legends .legend text{font-family:"monospace";font-size:14px}#chart-a360d3d1-e999-44d2-9031-a5ef74a90168 .axis text{font-family:"monospace";font-size:10px}#chart-a360d3d1-e999-44d2-9031-a5ef74a90168 .axis text.major{font-family:"monospace";font-size:10px}#chart-a360d3d1-e999-44d2-9031-a5ef74a90168 .series text{font-family:"monospace";font-size:8px}#chart-a360d3d1-e999-44d2-9031-a5ef74a90168 .tooltip text{font-family:"monospace";font-size:16px}#chart-a360d3d1-e999-44d2-9031-a5ef74a90168 text.no_data{font-size:64px}
#chart-a360d3d1-e999-44d2-9031-a5ef74a90168{background-color:black}#chart-a360d3d1-e999-44d2-9031-a5ef74a90168 path,#chart-a360d3d1-e999-44d2-9031-a5ef74a90168 line,#chart-a360d3d1-e999-44d2-9031-a5ef74a90168 rect,#chart-a360d3d1-e999-44d2-9031-a5ef74a90168 circle{-webkit-transition:250ms;-moz-transition:250ms;transition:250ms}#chart-a360d3d1-e999-44d2-9031-a5ef74a90168 .graph &gt; .background{fill:black}#chart-a360d3d1-e999-44d2-9031-a5ef74a90168 .plot &gt; .background{fill:#111}#chart-a360d3d1-e999-44d2-9031-a5ef74a90168 .graph{fill:#999}#chart-a360d3d1-e999-44d2-9031-a5ef74a90168 text.no_data{fill:#eee}#chart-a360d3d1-e999-44d2-9031-a5ef74a90168 .title{fill:#eee}#chart-a360d3d1-e999-44d2-9031-a5ef74a90168 .legends .legend text{fill:#999}#chart-a360d3d1-e999-44d2-9031-a5ef74a90168 .legends .legend:hover text{fill:#eee}#chart-a360d3d1-e999-44d2-9031-a5ef74a90168 .axis .line{stroke:#eee}#chart-a360d3d1-e999-44d2-9031-a5ef74a90168 .axis .guide.line{stroke:#555}#chart-a360d3d1-e999-44d2-9031-a5ef74a90168 .axis .major.line{stroke:#999}#chart-a360d3d1-e999-44d2-9031-a5ef74a90168 .axis text.major{stroke:#eee;fill:#eee}#chart-a360d3d1-e999-44d2-9031-a5ef74a90168 .axis.y .guides:hover .guide.line,#chart-a360d3d1-e999-44d2-9031-a5ef74a90168 .line-graph .axis.x .guides:hover .guide.line,#chart-a360d3d1-e999-44d2-9031-a5ef74a90168 .stackedline-graph .axis.x .guides:hover .guide.line,#chart-a360d3d1-e999-44d2-9031-a5ef74a90168 .xy-graph .axis.x .guides:hover .guide.line{stroke:#eee}#chart-a360d3d1-e999-44d2-9031-a5ef74a90168 .axis .guides:hover text{fill:#eee}#chart-a360d3d1-e999-44d2-9031-a5ef74a90168 .reactive{fill-opacity:.8}#chart-a360d3d1-e999-44d2-9031-a5ef74a90168 .reactive.active,#chart-a360d3d1-e999-44d2-9031-a5ef74a90168 .active .reactive{fill-opacity:.4}#chart-a360d3d1-e999-44d2-9031-a5ef74a90168 .series{stroke-width:1.0;stroke-linejoin:round;stroke-linecap:round;stroke-dasharray:0,0}#chart-a360d3d1-e999-44d2-9031-a5ef74a90168 .series text{fill:#eee}#chart-a360d3d1-e999-44d2-9031-a5ef74a90168 .tooltip rect{fill:#111;stroke:#eee}#chart-a360d3d1-e999-44d2-9031-a5ef74a90168 .tooltip text{fill:#eee}#chart-a360d3d1-e999-44d2-9031-a5ef74a90168 .map-element{fill:#999;stroke:#555 !important;opacity:.9;stroke-width:3;-webkit-transition:250ms;-moz-transition:250ms;-o-transition:250ms;transition:250ms}#chart-a360d3d1-e999-44d2-9031-a5ef74a90168 .map-element:hover{opacity:1;stroke-width:10}#chart-a360d3d1-e999-44d2-9031-a5ef74a90168 .color-0,#chart-a360d3d1-e999-44d2-9031-a5ef74a90168 .color-0 a:visited{stroke:#ff5995;fill:#ff5995}#chart-a360d3d1-e999-44d2-9031-a5ef74a90168 .color-1,#chart-a360d3d1-e999-44d2-9031-a5ef74a90168 .color-1 a:visited{stroke:#b6e354;fill:#b6e354}#chart-a360d3d1-e999-44d2-9031-a5ef74a90168 .color-2,#chart-a360d3d1-e999-44d2-9031-a5ef74a90168 .color-2 a:visited{stroke:#feed6c;fill:#feed6c}#chart-a360d3d1-e999-44d2-9031-a5ef74a90168 .color-3,#chart-a360d3d1-e999-44d2-9031-a5ef74a90168 .color-3 a:visited{stroke:#8cedff;fill:#8cedff}#chart-a360d3d1-e999-44d2-9031-a5ef74a90168 .color-4,#chart-a360d3d1-e999-44d2-9031-a5ef74a90168 .color-4 a:visited{stroke:#9e6ffe;fill:#9e6ffe}#chart-a360d3d1-e999-44d2-9031-a5ef74a90168 .color-5,#chart-a360d3d1-e999-44d2-9031-a5ef74a90168 .color-5 a:visited{stroke:#899ca1;fill:#899ca1}#chart-a360d3d1-e999-44d2-9031-a5ef74a90168 .color-6,#chart-a360d3d1-e999-44d2-9031-a5ef74a90168 .color-6 a:visited{stroke:#f8f8f2;fill:#f8f8f2}#chart-a360d3d1-e999-44d2-9031-a5ef74a90168 .color-7,#chart-a360d3d1-e999-44d2-9031-a5ef74a90168 .color-7 a:visited{stroke:#bf4646;fill:#bf4646}#chart-a360d3d1-e999-44d2-9031-a5ef74a90168 .color-8,#chart-a360d3d1-e999-44d2-9031-a5ef74a90168 .color-8 a:visited{stroke:#516083;fill:#516083}#chart-a360d3d1-e999-44d2-9031-a5ef74a90168 .color-9,#chart-a360d3d1-e999-44d2-9031-a5ef74a90168 .color-9 a:visited{stroke:#f92672;fill:#f92672}#chart-a360d3d1-e999-44d2-9031-a5ef74a90168 .color-10,#chart-a360d3d1-e999-44d2-9031-a5ef74a90168 .color-10 a:visited{stroke:#82b414;fill:#82b414}#chart-a360d3d1-e999-44d2-9031-a5ef74a90168 .color-11,#chart-a360d3d1-e999-44d2-9031-a5ef74a90168 .color-11 a:visited{stroke:#fd971f;fill:#fd971f}#chart-a360d3d1-e999-44d2-9031-a5ef74a90168 .color-12,#chart-a360d3d1-e999-44d2-9031-a5ef74a90168 .color-12 a:visited{stroke:#56c2d6;fill:#56c2d6}#chart-a360d3d1-e999-44d2-9031-a5ef74a90168 .color-13,#chart-a360d3d1-e999-44d2-9031-a5ef74a90168 .color-13 a:visited{stroke:#808384;fill:#808384}#chart-a360d3d1-e999-44d2-9031-a5ef74a90168 .color-14,#chart-a360d3d1-e999-44d2-9031-a5ef74a90168 .color-14 a:visited{stroke:#8c54fe;fill:#8c54fe}#chart-a360d3d1-e999-44d2-9031-a5ef74a90168 .color-15,#chart-a360d3d1-e999-44d2-9031-a5ef74a90168 .color-15 a:visited{stroke:#465457;fill:#465457}
#chart-a360d3d1-e999-44d2-9031-a5ef74a90168 text.no_data{text-anchor:middle}#chart-a360d3d1-e999-44d2-9031-a5ef74a90168 .guide.line{fill-opacity:0}#chart-a360d3d1-e999-44d2-9031-a5ef74a90168 .centered{text-anchor:middle}#chart-a360d3d1-e999-44d2-9031-a5ef74a90168 .title{text-anchor:middle}#chart-a360d3d1-e999-44d2-9031-a5ef74a90168 .legends .legend text{fill-opacity:1}#chart-a360d3d1-e999-44d2-9031-a5ef74a90168 .axis.x text{text-anchor:middle}#chart-a360d3d1-e999-44d2-9031-a5ef74a90168 .axis.x:not(.web) text[transform]{text-anchor:start}#chart-a360d3d1-e999-44d2-9031-a5ef74a90168 .axis.y text{text-anchor:end}#chart-a360d3d1-e999-44d2-9031-a5ef74a90168 .axis.y2 text{text-anchor:start}#chart-a360d3d1-e999-44d2-9031-a5ef74a90168 .axis.y .logarithmic text:not(.major),#chart-a360d3d1-e999-44d2-9031-a5ef74a90168 .axis.y2 .logarithmic text:not(.major){font-size:50%}#chart-a360d3d1-e999-44d2-9031-a5ef74a90168 .axis .guide.line{stroke-dasharray:4,4}#chart-a360d3d1-e999-44d2-9031-a5ef74a90168 .axis .major.guide.line{stroke-dasharray:6,6}#chart-a360d3d1-e999-44d2-9031-a5ef74a90168 .axis text.major{stroke-width:0.5px}#chart-a360d3d1-e999-44d2-9031-a5ef74a90168 .horizontal .axis.y .guide.line,#chart-a360d3d1-e999-44d2-9031-a5ef74a90168 .horizontal .axis.y2 .guide.line,#chart-a360d3d1-e999-44d2-9031-a5ef74a90168 .vertical .axis.x .guide.line{opacity:0}#chart-a360d3d1-e999-44d2-9031-a5ef74a90168 .horizontal .axis.always_show .guide.line,#chart-a360d3d1-e999-44d2-9031-a5ef74a90168 .vertical .axis.always_show .guide.line{opacity:1 !important}#chart-a360d3d1-e999-44d2-9031-a5ef74a90168 .axis.y .guides:hover .guide.line,#chart-a360d3d1-e999-44d2-9031-a5ef74a90168 .axis.y2 .guides:hover .guide.line,#chart-a360d3d1-e999-44d2-9031-a5ef74a90168 .axis.x .guides:hover .guide.line{opacity:1}#chart-a360d3d1-e999-44d2-9031-a5ef74a90168 .axis .guides:hover text{opacity:1}#chart-a360d3d1-e999-44d2-9031-a5ef74a90168 .nofill{fill:none}#chart-a360d3d1-e999-44d2-9031-a5ef74a90168 .subtle-fill{fill-opacity:.2}#chart-a360d3d1-e999-44d2-9031-a5ef74a90168 .dot{stroke-width:1px;fill-opacity:1}#chart-a360d3d1-e999-44d2-9031-a5ef74a90168 .dot.active{stroke-width:5px}#chart-a360d3d1-e999-44d2-9031-a5ef74a90168 .series text{stroke:none}#chart-a360d3d1-e999-44d2-9031-a5ef74a90168 .series text.active{opacity:1}#chart-a360d3d1-e999-44d2-9031-a5ef74a90168 .tooltip rect{fill-opacity:0.8}#chart-a360d3d1-e999-44d2-9031-a5ef74a90168 .tooltip text{fill-opacity:1}#chart-a360d3d1-e999-44d2-9031-a5ef74a90168 .tooltip text tspan.label{fill-opacity:.8}</style><script type="text/javascript">window.config = {"inner_radius": 0, "print_values": false, "tooltip_font_size": 16, "xrange": null, "legend_at_bottom_columns": null, "height": 600, "legend_at_bottom": false, "show_legend": true, "show_dots": false, "explicit_size": false, "legend_font_size": 14, "y_labels_major": null, "show_minor_x_labels": true, "major_label_font_size": 10, "fill": false, "half_pie": false, "x_value_formatter": null, "style": {"opacity": ".8", "foreground": "#999", "plot_background": "#111", "stroke_style": "round", "foreground_light": "#eee", "transition": "250ms", "foreground_dark": "#555", "stroke_dasharray": "0,0", "opacity_hover": ".4", "stroke_width": 1.0, "colors": ["#ff5995", "#b6e354", "#feed6c", "#8cedff", "#9e6ffe", "#899ca1", "#f8f8f2", "#bf4646", "#516083", "#f92672", "#82b414", "#fd971f", "#56c2d6", "#808384", "#8c54fe", "#465457"], "background": "black", "font_family": "monospace"}, "x_label_rotation": 0, "missing_value_fill_truncation": "x", "zero": 0, "margin_right": null, "interpolation_parameters": {}, "x_labels_major": null, "rounded_bars": null, "label_font_size": 10, "show_y_labels": true, "dots_size": 2.5, "show_y_guides": true, "show_minor_y_labels": true, "x_labels": null, "y_title": null, "value_font_size": 8, "order_min": null, "disable_xml_declaration": false, "strict": false, "css": ["style.css", "graph.css"], "mode": null, "show_only_major_dots": false, "y_label_rotation": 0, "human_readable": false, "show_x_guides": false, "spacing": 10, "x_labels_major_count": null, "pretty_print": false, "tooltip_border_radius": 0, "interpolate": null, "js": ["http://kozea.github.io/pygal.js/javascripts/svg.jquery.js", "http://kozea.github.io/pygal.js/javascripts/pygal-tooltips.js"], "y_labels": null, "y_labels_major_every": null, "x_label_format": "%Y-%m-%d %H:%M:%S.%f", "interpolation_precision": 250, "x_title": null, "value_formatter": null, "no_data_font_size": 64, "logarithmic": false, "width": 800, "print_zeroes": false, "no_data_text": "No data", "truncate_legend": null, "x_labels_major_every": null, "title": "\nCommand line arguments:-XX:+UseConcMarkSweepGC -Xmx6000m", "legend_box_size": 12, "no_prefix": false, "stroke": true, "title_font_size": 16, "include_x_axis": false, "range": null, "truncate_label": null, "margin_top": null, "margin_left": null, "y_labels_major_count": null, "margin_bottom": null, "margin": 20, "stack_from_top": false, "show_x_labels": true}</script><script type="text/javascript" xlink:href="http://kozea.github.io/pygal.js/javascripts/svg.jquery.js" /><script type="text/javascript" xlink:href="http://kozea.github.io/pygal.js/javascripts/pygal-tooltips.js" /></defs><title>
Command line arguments:-XX:+UseConcMarkSweepGC -Xmx6000m</title><g class="graph line-graph vertical"><rect class="background" height="600" width="800" x="0" y="0" /><g class="plot" transform="translate(197, 72)"><rect class="background" height="508" width="582.8" x="0" y="0" /><g class="axis y"><path class="line" d="M0.000000 508.000000 h582.800000" /><g class="guides"><path class="guide line" d="M0.000000 416.243720 h582.800000" /><text class="" x="-5" y="419.743719506">1000.0</text></g><g class="guides"><path class="guide line" d="M0.000000 333.844675 h582.800000" /><text class="" x="-5" y="337.344674556">2000.0</text></g><g class="guides"><path class="guide line" d="M0.000000 251.445630 h582.800000" /><text class="" x="-5" y="254.945629607">3000.0</text></g><g class="guides"><path class="guide line" d="M0.000000 169.046585 h582.800000" /><text class="" x="-5" y="172.546584657">4000.0</text></g><g class="guides"><path class="major guide line" d="M0.000000 86.647540 h582.800000" /><text class="major" x="-5" y="90.1475397073">5000.0</text></g></g><g class="series serie-0 color-0"><path class="line reactive nofill" d="M11.207692 478.702196 L13.133413 491.556447 15.059133 489.084475 16.984853 485.788513 18.910574 466.177541 20.836294 479.608585 22.762014 448.379347 24.687735 458.432031 26.613455 472.687065 28.539175 486.447706 30.464896 431.405144 32.390616 443.188207 34.316336 451.592910 36.242057 465.600747 38.167777 478.784595 40.093497 386.662462 42.019218 396.220752 43.944938 409.157402 45.870658 422.176451 47.796379 434.865904 49.722099 445.083385 51.647819 457.690439 53.573540 469.638301 55.499260 336.893439 57.424980 349.253296 59.350701 361.613153 61.276421 374.137808 63.202141 384.190491 65.127861 21.964289 67.053582 40.751272 68.979302 48.167186 70.905022 20.563506 72.830743 27.979420 74.756463 36.219324 76.682183 43.635238 78.607904 51.875143 80.533624 59.291057 82.459344 23.859467 84.385065 31.275382 86.310785 38.856094 88.236505 46.931200 90.162226 54.594311 92.087946 19.574717 94.013666 26.496237 95.939387 34.736141 97.865107 42.152055 99.790827 49.567969 101.716548 57.807874 103.642268 21.552294 105.567988 29.792199 107.493709 37.208113 109.419429 45.448017 111.345149 52.863931 113.270870 61.103836 115.196590 24.848256 117.122310 33.088160 119.048031 40.504075 120.973751 48.743979 122.899471 56.159893 124.825192 20.728304 126.750912 28.144218 128.676632 36.384122 130.602353 43.800036 132.528073 52.039941 134.453793 59.620653 136.379514 24.024266 138.305234 31.440180 140.230954 39.680084 142.156675 47.095998 144.082395 55.335903 146.008115 19.574717 147.933836 27.320227 149.859556 34.736141 151.785276 42.976046 153.710997 50.391960 155.636717 58.631864 157.562437 22.376285 159.488158 30.616189 161.413878 38.032103 163.339598 46.272008 165.265319 53.687922 167.191039 61.927826 169.116759 25.672246 171.042480 33.912151 172.968200 41.328065 174.893920 49.567969 176.819640 56.983884 178.745361 20.893102 180.671081 62.587019 182.596801 70.002933 184.522522 78.242837 186.448242 85.658751 188.373962 93.898656 190.299683 101.314570 192.225403 65.882980 194.151123 73.298894 196.076844 81.538799 198.002564 88.954713 199.928284 97.194617 201.854005 60.939038 203.779725 69.178942 205.705445 76.594856 207.631166 84.834761 209.556886 92.250675 211.482606 100.490579 213.408327 64.234999 215.334047 72.474904 217.259767 79.890818 219.185488 88.130723 221.111208 95.546637 223.036928 60.609442 224.962649 67.530961 226.888369 75.770866 228.814089 83.186780 230.739810 91.426684 232.665530 98.842598 234.591250 63.411009 236.516971 70.826923 238.442691 79.066828 240.368411 86.482742 242.294132 94.722646 244.219852 102.138560 246.145572 66.706971 248.071293 74.122885 249.997013 82.362789 251.922733 89.778703 253.848454 98.018608 255.774174 61.763028 257.699894 70.002933 259.625615 77.418847 261.551335 85.658751 263.477055 93.074665 265.402776 100.490579 267.328496 65.058990 269.254216 72.474904 271.179937 80.714808 273.105657 88.130723 275.031377 96.370627 276.957098 60.609442 278.882818 68.354952 280.808538 75.770866 282.734259 84.010770 284.659979 91.426684 286.585699 99.666589 288.511420 63.411009 290.437140 71.650914 292.362860 79.066828 294.288580 87.306732 296.214301 211.729290 298.140021 219.969194 300.065741 227.385108 301.991462 235.625013 303.917182 243.040927 305.842902 251.280832 307.768623 215.025252 309.694343 223.265156 311.620063 230.681070 313.545784 238.920975 315.471504 246.336889 317.397224 210.905299 319.322945 218.321214 321.248665 226.561118 323.174385 233.977032 325.100106 242.216937 327.025826 249.632851 328.951546 214.201261 330.877267 221.617175 332.802987 229.857080 334.728707 237.272994 336.654428 245.512898 338.580148 209.257319 340.505868 217.497223 342.431589 224.913137 344.357309 233.153042 346.283029 240.568956 348.208750 248.808860 350.134470 212.553280 352.060190 220.793185 353.985911 228.209099 355.911631 236.449003 357.837351 243.864917 359.763072 208.927722 361.688792 215.849242 363.614512 224.089147 365.540233 231.505061 367.465953 239.744965 369.391673 247.160879 371.317394 210.905299 373.243114 219.145204 375.168834 226.561118 377.094555 234.801023 379.020275 242.216937 380.945995 250.456841 382.871716 214.201261 384.797436 222.441166 386.723156 229.857080 388.648877 238.096984 390.574597 245.512898 392.500317 210.081309 394.426038 217.497223 396.351758 225.737128 398.277478 233.153042 400.203199 241.392946 402.128919 248.808860 404.054639 213.377271 405.980360 220.793185 407.906080 229.033089 409.831800 236.449003 411.757520 471.121483 413.683241 468.649512 415.608961 476.065426 417.534681 473.593455 419.460402 470.297493 421.386122 477.713407 423.311842 475.241436 425.237563 472.110272 427.163283 469.473503 429.089003 477.713407 431.014724 474.417445 432.940444 471.945474 434.866164 468.649512 436.791885 476.889417 438.717605 473.593455 440.643325 471.121483 442.569046 467.990320 444.494766 476.065426 446.420486 472.769464 448.346207 470.297493 450.271927 477.713407 452.197647 475.241436 454.123368 471.945474 456.049088 469.473503 457.974808 477.713407 459.900529 474.417445 461.826249 471.945474 463.751969 468.649512 465.677690 476.889417 467.603410 473.593455 469.529130 471.121483 471.454851 467.990320 473.380571 476.065426 475.306291 472.769464 477.232012 470.297493 479.157732 477.713407 481.083452 475.241436 483.009173 471.945474 484.934893 469.473503 486.860613 476.889417 488.786334 474.417445 490.712054 471.121483 492.637774 467.990320 494.563495 476.065426 496.489215 472.769464 498.414935 470.297493 500.340656 467.413526 502.266376 475.241436 504.192096 471.945474 506.117817 469.473503 508.043537 477.054215 509.969257 474.417445 511.894978 471.121483 513.820698 468.649512 515.746418 476.065426 517.672139 473.593455 519.597859 470.297493 521.523579 467.990320 523.449299 476.065426 525.375020 472.769464 527.300740 469.638301 529.226460 477.713407 531.152181 475.241436 533.077901 471.945474 535.003621 469.473503 536.929342 476.889417 538.855062 474.417445 540.780782 471.121483 542.706503 468.649512 544.632223 476.065426 546.557943 473.593455 548.483664 470.297493 550.409384 467.990320 552.335104 475.241436 554.260825 472.769464 556.186545 469.473503 558.112265 477.713407 560.037986 474.417445 561.963706 471.945474 563.889426 468.649512 565.815147 476.889417 567.740867 473.593455 569.666587 471.121483 571.592308 467.990320" /></g><g class="series serie-1 color-1"><path class="line reactive nofill" d="M11.207692 9.769231 L13.133413 9.769231 15.059133 9.769231 16.984853 9.769231 18.910574 9.769231 20.836294 9.769231 22.762014 9.769231 24.687735 9.769231 26.613455 9.769231 28.539175 9.769231 30.464896 9.769231 32.390616 9.769231 34.316336 9.769231 36.242057 9.769231 38.167777 9.769231 40.093497 9.769231 42.019218 9.769231 43.944938 9.769231 45.870658 9.769231 47.796379 9.769231 49.722099 9.769231 51.647819 9.769231 53.573540 9.769231 55.499260 9.769231 57.424980 9.769231 59.350701 9.769231 61.276421 9.769231 63.202141 9.769231 65.127861 9.769231 67.053582 9.769231 68.979302 9.769231 70.905022 9.769231 72.830743 9.769231 74.756463 9.769231 76.682183 9.769231 78.607904 9.769231 80.533624 9.769231 82.459344 9.769231 84.385065 9.769231 86.310785 9.769231 88.236505 9.769231 90.162226 9.769231 92.087946 9.769231 94.013666 9.769231 95.939387 9.769231 97.865107 9.769231 99.790827 9.769231 101.716548 9.769231 103.642268 9.769231 105.567988 9.769231 107.493709 9.769231 109.419429 9.769231 111.345149 9.769231 113.270870 9.769231 115.196590 9.769231 117.122310 9.769231 119.048031 9.769231 120.973751 9.769231 122.899471 9.769231 124.825192 9.769231 126.750912 9.769231 128.676632 9.769231 130.602353 9.769231 132.528073 9.769231 134.453793 9.769231 136.379514 9.769231 138.305234 9.769231 140.230954 9.769231 142.156675 9.769231 144.082395 9.769231 146.008115 9.769231 147.933836 9.769231 149.859556 9.769231 151.785276 9.769231 153.710997 9.769231 155.636717 9.769231 157.562437 9.769231 159.488158 9.769231 161.413878 9.769231 163.339598 9.769231 165.265319 9.769231 167.191039 9.769231 169.116759 9.769231 171.042480 9.769231 172.968200 9.769231 174.893920 9.769231 176.819640 9.769231 178.745361 9.769231 180.671081 9.769231 182.596801 9.769231 184.522522 9.769231 186.448242 9.769231 188.373962 9.769231 190.299683 9.769231 192.225403 9.769231 194.151123 9.769231 196.076844 9.769231 198.002564 9.769231 199.928284 9.769231 201.854005 9.769231 203.779725 9.769231 205.705445 9.769231 207.631166 9.769231 209.556886 9.769231 211.482606 9.769231 213.408327 9.769231 215.334047 9.769231 217.259767 9.769231 219.185488 9.769231 221.111208 9.769231 223.036928 9.769231 224.962649 9.769231 226.888369 9.769231 228.814089 9.769231 230.739810 9.769231 232.665530 9.769231 234.591250 9.769231 236.516971 9.769231 238.442691 9.769231 240.368411 9.769231 242.294132 9.769231 244.219852 9.769231 246.145572 9.769231 248.071293 9.769231 249.997013 9.769231 251.922733 9.769231 253.848454 9.769231 255.774174 9.769231 257.699894 9.769231 259.625615 9.769231 261.551335 9.769231 263.477055 9.769231 265.402776 9.769231 267.328496 9.769231 269.254216 9.769231 271.179937 9.769231 273.105657 9.769231 275.031377 9.769231 276.957098 9.769231 278.882818 9.769231 280.808538 9.769231 282.734259 9.769231 284.659979 9.769231 286.585699 9.769231 288.511420 9.769231 290.437140 9.769231 292.362860 9.769231 294.288580 9.769231 296.214301 9.769231 298.140021 9.769231 300.065741 9.769231 301.991462 9.769231 303.917182 9.769231 305.842902 9.769231 307.768623 9.769231 309.694343 9.769231 311.620063 9.769231 313.545784 9.769231 315.471504 9.769231 317.397224 9.769231 319.322945 9.769231 321.248665 9.769231 323.174385 9.769231 325.100106 9.769231 327.025826 9.769231 328.951546 9.769231 330.877267 9.769231 332.802987 9.769231 334.728707 9.769231 336.654428 9.769231 338.580148 9.769231 340.505868 9.769231 342.431589 9.769231 344.357309 9.769231 346.283029 9.769231 348.208750 9.769231 350.134470 9.769231 352.060190 9.769231 353.985911 9.769231 355.911631 9.769231 357.837351 9.769231 359.763072 9.769231 361.688792 9.769231 363.614512 9.769231 365.540233 9.769231 367.465953 9.769231 369.391673 9.769231 371.317394 9.769231 373.243114 9.769231 375.168834 9.769231 377.094555 9.769231 379.020275 9.769231 380.945995 9.769231 382.871716 9.769231 384.797436 9.769231 386.723156 9.769231 388.648877 9.769231 390.574597 9.769231 392.500317 9.769231 394.426038 9.769231 396.351758 9.769231 398.277478 9.769231 400.203199 9.769231 402.128919 9.769231 404.054639 9.769231 405.980360 9.769231 407.906080 9.769231 409.831800 9.769231 411.757520 9.769231 413.683241 9.769231 415.608961 9.769231 417.534681 9.769231 419.460402 9.769231 421.386122 9.769231 423.311842 9.769231 425.237563 9.769231 427.163283 9.769231 429.089003 9.769231 431.014724 9.769231 432.940444 9.769231 434.866164 9.769231 436.791885 9.769231 438.717605 9.769231 440.643325 9.769231 442.569046 9.769231 444.494766 9.769231 446.420486 9.769231 448.346207 9.769231 450.271927 9.769231 452.197647 9.769231 454.123368 9.769231 456.049088 9.769231 457.974808 9.769231 459.900529 9.769231 461.826249 9.769231 463.751969 9.769231 465.677690 9.769231 467.603410 9.769231 469.529130 9.769231 471.454851 9.769231 473.380571 9.769231 475.306291 9.769231 477.232012 9.769231 479.157732 9.769231 481.083452 9.769231 483.009173 9.769231 484.934893 9.769231 486.860613 9.769231 488.786334 9.769231 490.712054 9.769231 492.637774 9.769231 494.563495 9.769231 496.489215 9.769231 498.414935 9.769231 500.340656 9.769231 502.266376 9.769231 504.192096 9.769231 506.117817 9.769231 508.043537 9.769231 509.969257 9.769231 511.894978 9.769231 513.820698 9.769231 515.746418 9.769231 517.672139 9.769231 519.597859 9.769231 521.523579 9.769231 523.449299 9.769231 525.375020 9.769231 527.300740 9.769231 529.226460 9.769231 531.152181 9.769231 533.077901 9.769231 535.003621 9.769231 536.929342 9.769231 538.855062 9.769231 540.780782 9.769231 542.706503 9.769231 544.632223 9.769231 546.557943 9.769231 548.483664 9.769231 550.409384 9.769231 552.335104 9.769231 554.260825 9.769231 556.186545 9.769231 558.112265 9.769231 560.037986 9.769231 561.963706 9.769231 563.889426 9.769231 565.815147 9.769231 567.740867 9.769231 569.666587 9.769231 571.592308 9.769231" /></g><g class="series serie-2 color-2"><path class="line reactive nofill" d="M11.207692 498.230769 L13.133413 485.376518 15.059133 471.615878 16.984853 457.937636 18.910574 449.203337 20.836294 435.772293 22.762014 421.682056 24.687735 411.711772 26.613455 397.374338 28.539175 383.696097 30.464896 370.594649 32.390616 358.811585 34.316336 350.406883 36.242057 336.399045 38.167777 323.215198 40.093497 310.113750 42.019218 300.637859 43.944938 287.618810 45.870658 274.599761 47.796379 261.910308 49.722099 251.692827 51.647819 239.085773 53.573540 227.220310 55.499260 214.613257 57.424980 202.171001 59.350701 189.811144 61.276421 177.286489 63.202141 167.316205 65.127861 486.530105 67.053582 467.660724 68.979302 460.244810 70.905022 487.930889 72.830743 480.514975 74.756463 472.275070 76.682183 464.859156 78.607904 456.619252 80.533624 449.203337 82.459344 484.634927 84.385065 477.219013 86.310785 469.638301 88.236505 461.563194 90.162226 453.817684 92.087946 488.919677 94.013666 481.998157 95.939387 473.758253 97.865107 466.342339 99.790827 458.926425 101.716548 450.686520 103.642268 486.942100 105.567988 478.702196 107.493709 471.286282 109.419429 463.046377 111.345149 455.630463 113.270870 447.390558 115.196590 483.646138 117.122310 475.406234 119.048031 467.990320 120.973751 459.750415 122.899471 452.334501 124.825192 487.766091 126.750912 480.350176 128.676632 472.110272 130.602353 464.694358 132.528073 456.454453 134.453793 448.791342 136.379514 484.470129 138.305234 477.054215 140.230954 468.814310 142.156675 461.398396 144.082395 453.158492 146.008115 488.919677 147.933836 481.174167 149.859556 473.758253 151.785276 465.518348 153.710997 458.102434 155.636717 449.862530 157.562437 486.118110 159.488158 477.878205 161.413878 470.462291 163.339598 462.222387 165.265319 454.806473 167.191039 446.566568 169.116759 482.822148 171.042480 474.582243 172.968200 467.166329 174.893920 458.926425 176.819640 451.510511 178.745361 487.766091 180.671081 487.024499 182.596801 479.608585 184.522522 471.368681 186.448242 463.952767 188.373962 455.712862 190.299683 448.296948 192.225403 483.728537 194.151123 476.312623 196.076844 468.072719 198.002564 460.656805 199.928284 452.416900 201.854005 488.672480 203.779725 480.432576 205.705445 473.016661 207.631166 464.776757 209.556886 457.360843 211.482606 449.120938 213.408327 485.376518 215.334047 477.136614 217.259767 469.720700 219.185488 461.480795 221.111208 454.064881 223.036928 489.002076 224.962649 482.080556 226.888369 473.840652 228.814089 466.424738 230.739810 458.184833 232.665530 450.768919 234.591250 486.200509 236.516971 478.784595 238.442691 470.544690 240.368411 463.128776 242.294132 454.888872 244.219852 447.472958 246.145572 482.904547 248.071293 475.488633 249.997013 467.248728 251.922733 459.832814 253.848454 451.592910 255.774174 487.848490 257.699894 479.608585 259.625615 472.192671 261.551335 463.952767 263.477055 456.536852 265.402776 449.120938 267.328496 484.552528 269.254216 477.136614 271.179937 468.896709 273.105657 461.480795 275.031377 453.240891 276.957098 489.002076 278.882818 481.256566 280.808538 473.840652 282.734259 465.600747 284.659979 458.184833 286.585699 449.944929 288.511420 486.200509 290.437140 477.960604 292.362860 470.544690 294.288580 462.304786 296.214301 486.200509 298.140021 477.960604 300.065741 470.544690 301.991462 462.304786 303.917182 454.888872 305.842902 446.648967 307.768623 482.904547 309.694343 474.664642 311.620063 467.248728 313.545784 459.008824 315.471504 451.592910 317.397224 487.024499 319.322945 479.608585 321.248665 471.368681 323.174385 463.952767 325.100106 455.712862 327.025826 448.296948 328.951546 483.728537 330.877267 476.312623 332.802987 468.072719 334.728707 460.656805 336.654428 452.416900 338.580148 488.672480 340.505868 480.432576 342.431589 473.016661 344.357309 464.776757 346.283029 457.360843 348.208750 449.120938 350.134470 485.376518 352.060190 477.136614 353.985911 469.720700 355.911631 461.480795 357.837351 454.064881 359.763072 489.002076 361.688792 482.080556 363.614512 473.840652 365.540233 466.424738 367.465953 458.184833 369.391673 450.768919 371.317394 487.024499 373.243114 478.784595 375.168834 471.368681 377.094555 463.128776 379.020275 455.712862 380.945995 447.472958 382.871716 483.728537 384.797436 475.488633 386.723156 468.072719 388.648877 459.832814 390.574597 452.416900 392.500317 487.848490 394.426038 480.432576 396.351758 472.192671 398.277478 464.776757 400.203199 456.536852 402.128919 449.120938 404.054639 484.552528 405.980360 477.136614 407.906080 468.896709 409.831800 461.480795 411.757520 486.200509 413.683241 488.672480 415.608961 481.256566 417.534681 483.728537 419.460402 487.024499 421.386122 479.608585 423.311842 482.080556 425.237563 485.376518 427.163283 487.848490 429.089003 479.608585 431.014724 482.904547 432.940444 485.376518 434.866164 488.672480 436.791885 480.432576 438.717605 483.728537 440.643325 486.200509 442.569046 489.331672 444.494766 481.256566 446.420486 484.552528 448.346207 487.024499 450.271927 479.608585 452.197647 482.080556 454.123368 485.376518 456.049088 487.848490 457.974808 479.608585 459.900529 482.904547 461.826249 485.376518 463.751969 488.672480 465.677690 480.432576 467.603410 483.728537 469.529130 486.200509 471.454851 489.331672 473.380571 481.256566 475.306291 484.552528 477.232012 487.024499 479.157732 479.608585 481.083452 482.080556 483.009173 485.376518 484.934893 487.848490 486.860613 480.432576 488.786334 482.904547 490.712054 486.200509 492.637774 489.331672 494.563495 481.256566 496.489215 484.552528 498.414935 487.024499 500.340656 489.908466 502.266376 482.080556 504.192096 485.376518 506.117817 487.848490 508.043537 480.432576 509.969257 482.904547 511.894978 486.200509 513.820698 488.672480 515.746418 481.256566 517.672139 483.728537 519.597859 487.024499 521.523579 489.331672 523.449299 481.256566 525.375020 484.552528 527.300740 487.848490 529.226460 479.608585 531.152181 482.080556 533.077901 485.376518 535.003621 487.848490 536.929342 480.432576 538.855062 482.904547 540.780782 486.200509 542.706503 488.672480 544.632223 481.256566 546.557943 483.728537 548.483664 487.024499 550.409384 489.331672 552.335104 482.080556 554.260825 484.552528 556.186545 487.848490 558.112265 479.608585 560.037986 482.904547 561.963706 485.376518 563.889426 488.672480 565.815147 480.432576 567.740867 483.728537 569.666587 486.200509 571.592308 489.331672" /></g><g class="series serie-3 color-3"><path class="line reactive nofill" d="M11.207692 478.290200 L13.133413 478.290200 15.059133 462.057588 16.984853 445.083385 18.910574 416.738114 20.836294 416.738114 22.762014 371.418639 24.687735 371.418639 26.613455 371.418639 28.539175 371.418639 30.464896 303.357028 32.390616 303.357028 34.316336 303.357028 36.242057 303.357028 38.167777 303.357028 40.093497 198.133448 42.019218 198.133448 43.944938 198.133448 45.870658 198.133448 47.796379 198.133448 49.722099 198.133448 51.647819 198.133448 53.573540 198.133448 55.499260 52.781532 57.424980 52.781532 59.350701 52.781532 61.276421 52.781532 63.202141 52.781532 65.127861 9.769231 67.053582 9.769231 68.979302 9.769231 70.905022 9.769231 72.830743 9.769231 74.756463 9.769231 76.682183 9.769231 78.607904 9.769231 80.533624 9.769231 82.459344 9.769231 84.385065 9.769231 86.310785 9.769231 88.236505 9.769231 90.162226 9.769231 92.087946 9.769231 94.013666 9.769231 95.939387 9.769231 97.865107 9.769231 99.790827 9.769231 101.716548 9.769231 103.642268 9.769231 105.567988 9.769231 107.493709 9.769231 109.419429 9.769231 111.345149 9.769231 113.270870 9.769231 115.196590 9.769231 117.122310 9.769231 119.048031 9.769231 120.973751 9.769231 122.899471 9.769231 124.825192 9.769231 126.750912 9.769231 128.676632 9.769231 130.602353 9.769231 132.528073 9.769231 134.453793 9.769231 136.379514 9.769231 138.305234 9.769231 140.230954 9.769231 142.156675 9.769231 144.082395 9.769231 146.008115 9.769231 147.933836 9.769231 149.859556 9.769231 151.785276 9.769231 153.710997 9.769231 155.636717 9.769231 157.562437 9.769231 159.488158 9.769231 161.413878 9.769231 163.339598 9.769231 165.265319 9.769231 167.191039 9.769231 169.116759 9.769231 171.042480 9.769231 172.968200 9.769231 174.893920 9.769231 176.819640 9.769231 178.745361 9.769231 180.671081 50.968753 182.596801 50.968753 184.522522 50.968753 186.448242 50.968753 188.373962 50.968753 190.299683 50.968753 192.225403 50.968753 194.151123 50.968753 196.076844 50.968753 198.002564 50.968753 199.928284 50.968753 201.854005 50.968753 203.779725 50.968753 205.705445 50.968753 207.631166 50.968753 209.556886 50.968753 211.482606 50.968753 213.408327 50.968753 215.334047 50.968753 217.259767 50.968753 219.185488 50.968753 221.111208 50.968753 223.036928 50.968753 224.962649 50.968753 226.888369 50.968753 228.814089 50.968753 230.739810 50.968753 232.665530 50.968753 234.591250 50.968753 236.516971 50.968753 238.442691 50.968753 240.368411 50.968753 242.294132 50.968753 244.219852 50.968753 246.145572 50.968753 248.071293 50.968753 249.997013 50.968753 251.922733 50.968753 253.848454 50.968753 255.774174 50.968753 257.699894 50.968753 259.625615 50.968753 261.551335 50.968753 263.477055 50.968753 265.402776 50.968753 267.328496 50.968753 269.254216 50.968753 271.179937 50.968753 273.105657 50.968753 275.031377 50.968753 276.957098 50.968753 278.882818 50.968753 280.808538 50.968753 282.734259 50.968753 284.659979 50.968753 286.585699 50.968753 288.511420 50.968753 290.437140 50.968753 292.362860 50.968753 294.288580 50.968753 296.214301 199.287034 298.140021 199.287034 300.065741 199.287034 301.991462 199.287034 303.917182 199.287034 305.842902 199.287034 307.768623 199.287034 309.694343 199.287034 311.620063 199.287034 313.545784 199.287034 315.471504 199.287034 317.397224 199.287034 319.322945 199.287034 321.248665 199.287034 323.174385 199.287034 325.100106 199.287034 327.025826 199.287034 328.951546 199.287034 330.877267 199.287034 332.802987 199.287034 334.728707 199.287034 336.654428 199.287034 338.580148 199.287034 340.505868 199.287034 342.431589 199.287034 344.357309 199.287034 346.283029 199.287034 348.208750 199.287034 350.134470 199.287034 352.060190 199.287034 353.985911 199.287034 355.911631 199.287034 357.837351 199.287034 359.763072 199.287034 361.688792 199.287034 363.614512 199.287034 365.540233 199.287034 367.465953 199.287034 369.391673 199.287034 371.317394 199.287034 373.243114 199.287034 375.168834 199.287034 377.094555 199.287034 379.020275 199.287034 380.945995 199.287034 382.871716 199.287034 384.797436 199.287034 386.723156 199.287034 388.648877 199.287034 390.574597 199.287034 392.500317 199.287034 394.426038 199.287034 396.351758 199.287034 398.277478 199.287034 400.203199 199.287034 402.128919 199.287034 404.054639 199.287034 405.980360 199.287034 407.906080 199.287034 409.831800 199.287034 411.757520 458.679228 413.683241 458.679228 415.608961 458.679228 417.534681 458.679228 419.460402 458.679228 421.386122 458.679228 423.311842 458.679228 425.237563 458.679228 427.163283 458.679228 429.089003 458.679228 431.014724 458.679228 432.940444 458.679228 434.866164 458.679228 436.791885 458.679228 438.717605 458.679228 440.643325 458.679228 442.569046 458.679228 444.494766 458.679228 446.420486 458.679228 448.346207 458.679228 450.271927 458.679228 452.197647 458.679228 454.123368 458.679228 456.049088 458.679228 457.974808 458.679228 459.900529 458.679228 461.826249 458.679228 463.751969 458.679228 465.677690 458.679228 467.603410 458.679228 469.529130 458.679228 471.454851 458.679228 473.380571 458.679228 475.306291 458.679228 477.232012 458.679228 479.157732 458.679228 481.083452 458.679228 483.009173 458.679228 484.934893 458.679228 486.860613 458.679228 488.786334 458.679228 490.712054 458.679228 492.637774 458.679228 494.563495 458.679228 496.489215 458.679228 498.414935 458.679228 500.340656 458.679228 502.266376 458.679228 504.192096 458.679228 506.117817 458.679228 508.043537 458.679228 509.969257 458.679228 511.894978 458.679228 513.820698 458.679228 515.746418 458.679228 517.672139 458.679228 519.597859 458.679228 521.523579 458.679228 523.449299 458.679228 525.375020 458.679228 527.300740 458.679228 529.226460 458.679228 531.152181 458.679228 533.077901 458.679228 535.003621 458.679228 536.929342 458.679228 538.855062 458.679228 540.780782 458.679228 542.706503 458.679228 544.632223 458.679228 546.557943 458.679228 548.483664 458.679228 550.409384 458.679228 552.335104 458.679228 554.260825 458.679228 556.186545 458.679228 558.112265 458.679228 560.037986 458.679228 561.963706 458.679228 563.889426 458.679228 565.815147 458.679228 567.740867 458.679228 569.666587 458.679228 571.592308 458.679228" /></g></g><g class="titles"><text class="title plot_title" x="400.0" y="26" /><text class="title plot_title" x="400.0" y="52">Command line arguments:-XX:+UseConcMarkSweepGC -Xmx6000m</text></g><g class="plot overlay" transform="translate(197, 72)"><g class="series serie-0 color-0" /><g class="series serie-1 color-1" /><g class="series serie-2 color-2" /><g class="series serie-3 color-3" /></g><g class="plot text-overlay" transform="translate(197, 72)"><g class="series serie-0 color-0" /><g class="series serie-1 color-1" /><g class="series serie-2 color-2" /><g class="series serie-3 color-3" /></g><g class="plot tooltip-overlay" transform="translate(197, 72)"><g class="tooltip" style="opacity: 0" transform="translate(0 0)"><a><rect class="tooltip-box" height="0" rx="0" ry="0" width="0" /><text class="text"><tspan class="label" /><tspan class="value" /></text></a></g></g><g class="legends" transform="translate(10, 82)"><g class="legend reactive activate-serie" id="activate-serie-0"><rect class="color-0 reactive" height="12" width="12" x="0.0" y="1.0" /><text x="17.0" y="11.2"> free memory</text></g><g class="legend reactive activate-serie" id="activate-serie-1"><rect class="color-1 reactive" height="12" width="12" x="0.0" y="22.0" /><text x="17.0" y="32.2"> xmx
</text></g><g class="legend reactive activate-serie" id="activate-serie-2"><rect class="color-2 reactive" height="12" width="12" x="0.0" y="43.0" /><text x="17.0" y="53.2">used memory</text></g><g class="legend reactive activate-serie" id="activate-serie-3"><rect class="color-3 reactive" height="12" width="12" x="0.0" y="64.0" /><text x="17.0" y="74.2"> total memory</text></g></g><g class="legends" transform="translate(790, 82)" /></g></svg>